<svg id="Icon-Credit-Card" xmlns="http://www.w3.org/2000/svg" width="19.699" height="15.1" viewBox="0 0 19.699 15.1">
  <path id="Fill-7_1_" d="M-102.251-503.5h-16.2a1.737,1.737,0,0,1-1.75-1.75v-11.6a1.737,1.737,0,0,1,1.75-1.75h16.2a1.737,1.737,0,0,1,1.75,1.75v11.6a1.737,1.737,0,0,1-1.75,1.75Zm-16.2-13.92a.556.556,0,0,0-.57.57v11.6a.556.556,0,0,0,.57.57h16.2a.556.556,0,0,0,.57-.57v-11.6a.556.556,0,0,0-.57-.57Z" transform="translate(120.2 518.6)" fill="#060606"/>
  <path id="Fill-8_1_" d="M-118.8-512.8h18.56v3.46H-118.8Z" transform="translate(119.37 515.161)" fill="#060606"/>
  <path id="Fill-9_1_" d="M-114.5-498.6h.57v1.18h-.57Z" transform="translate(116.82 506.74)" fill="#060606"/>
  <path id="Fill-10_1_" d="M-111.7-498.6h.611v1.18h-.611Z" transform="translate(115.16 506.74)" fill="#060606"/>
  <path id="Fill-11_1_" d="M-108.8-498.6h.57v1.18h-.57Z" transform="translate(113.44 506.74)" fill="#060606"/>
  <path id="Fill-12_1_" d="M-104.5-498.6h.57v1.18h-.57Z" transform="translate(110.89 506.74)" fill="#060606"/>
  <path id="Fill-13_1_" d="M-101.7-498.6h.57v1.18h-.57Z" transform="translate(109.23 506.74)" fill="#060606"/>
  <path id="Fill-14_1_" d="M-98.8-498.6h.57v1.18h-.57Z" transform="translate(107.51 506.74)" fill="#060606"/>
  <path id="Fill-15_1_" d="M-94.6-498.6h.57v1.18h-.57Z" transform="translate(105.02 506.74)" fill="#060606"/>
  <path id="Fill-16_1_" d="M-91.7-498.6h.57v1.18h-.57Z" transform="translate(103.3 506.74)" fill="#060606"/>
  <path id="Fill-17_1_" d="M-88.9-498.6h.57v1.18h-.57Z" transform="translate(101.64 506.74)" fill="#060606"/>
  <path id="Fill-18_1_" d="M-84.6-498.6h.57v1.18h-.57Z" transform="translate(99.09 506.74)" fill="#060606"/>
  <path id="Fill-19_1_" d="M-81.8-498.6h.611v1.18H-81.8Z" transform="translate(97.429 506.74)" fill="#060606"/>
  <path id="Fill-20_1_" d="M-78.9-498.6h.57v1.18h-.57Z" transform="translate(95.71 506.74)" fill="#060606"/>
</svg>
