<svg xmlns="http://www.w3.org/2000/svg" width="79.628" height="90.997" viewBox="0 0 79.628 90.997">
  <g id="_2317808_cam_camera_live_multimedia_web_icon" data-name="2317808_cam_camera_live_multimedia_web_icon" transform="translate(-5 -2.002)">
    <path id="Path_12" data-name="Path 12" d="M39.485,48.1a43.335,43.335,0,0,1-19.15-4.441L10.949,55.677H68.014L58.629,43.663A43.334,43.334,0,0,1,39.485,48.1Z" transform="translate(5.329 37.321)" fill="#104a8e"/>
    <path id="Path_13" data-name="Path 13" d="M44.814,81.629A39.814,39.814,0,1,0,5,41.815,39.857,39.857,0,0,0,44.814,81.629Zm11.375-64.46a7.584,7.584,0,1,1-7.584,7.584A7.594,7.594,0,0,1,56.189,17.169Zm-11.378,1.89c.506,0,1.009.026,1.511.059A11.36,11.36,0,0,0,65.176,31.7a21.78,21.78,0,0,1,2.385,10.108A22.751,22.751,0,1,1,44.811,19.059Z" transform="translate(0)" fill="#104a8e"/>
  </g>
</svg>
