<svg id="Bell" xmlns="http://www.w3.org/2000/svg" width="23.732" height="22.647" viewBox="0 0 23.732 22.647">
  <path id="Bell-2" data-name="Bell" d="M63.6,41.018a1.076,1.076,0,0,0-.395-.408L62.017,39.9A3.135,3.135,0,0,1,60.5,37.21V30.785a8.626,8.626,0,0,0-6.2-8.273.372.372,0,0,1-.27-.355,2.157,2.157,0,0,0-4.314,0,.373.373,0,0,1-.27.355,8.626,8.626,0,0,0-6.2,8.273v6.424a3.135,3.135,0,0,1-1.52,2.687l-1.188.713a1.1,1.1,0,0,0,.548,2.038H62.654a1.1,1.1,0,0,0,.945-1.63Z" transform="translate(-40 -20)" fill="#fff"/>
</svg>
