<svg xmlns="http://www.w3.org/2000/svg" width="93.221" height="93.221" viewBox="0 0 93.221 93.221">
  <path id="_1608951_ticket_icon_1_" data-name="1608951_ticket_icon (1)" d="M107.664,76.019,125.146,93.5,93.5,125.146,76.019,107.664ZM95.991,130.181l34.19-34.19a3.474,3.474,0,0,0,0-4.979L110.154,70.984a3.61,3.61,0,0,0-4.979,0l-34.19,34.19a3.474,3.474,0,0,0,0,4.979l20.027,20.027a3.61,3.61,0,0,0,4.979,0ZM145.174,94.94,94.995,145.174a7.147,7.147,0,0,1-10.014,0L78.011,138.2a10.641,10.641,0,0,0-15.048-15.048l-6.915-6.971a7.147,7.147,0,0,1,0-10.014l50.179-50.123a7.147,7.147,0,0,1,10.014,0l6.915,6.915A10.641,10.641,0,0,0,138.2,78.011l6.971,6.915a7.147,7.147,0,0,1,0,10.014Z" transform="translate(-54 -54)" fill="#104a8e"/>
</svg>
