<svg xmlns="http://www.w3.org/2000/svg" width="30.702" height="30.501" viewBox="0 0 51.702 44.501">
  <g id="Ticket" transform="matrix(0.899, -0.438, 0.438, 0.899, 0, 19.198)">
    <path id="Path_114" data-name="Path 114"
      d="M42.97,10.159a1.656,1.656,0,0,0,.823-1.431V1.656A1.656,1.656,0,0,0,42.137,0H30.913V2.76a1.656,1.656,0,1,1-3.312,0V0H1.656A1.656,1.656,0,0,0,0,1.656V8.728a1.656,1.656,0,0,0,.823,1.431,4.5,4.5,0,0,1,2.282,3.918A4.5,4.5,0,0,1,.822,17.994,1.656,1.656,0,0,0,0,19.426V26.5a1.656,1.656,0,0,0,1.656,1.656H27.6v-2.76a1.656,1.656,0,1,1,3.312,0v2.76H42.137A1.656,1.656,0,0,0,43.793,26.5V19.426a1.656,1.656,0,0,0-.823-1.431,4.5,4.5,0,0,1,0-7.836Zm-12.057,9.53a1.656,1.656,0,1,1-3.312,0v-2.76a1.656,1.656,0,1,1,3.312,0Zm0-8.464a1.656,1.656,0,1,1-3.312,0V8.464a1.656,1.656,0,1,1,3.312,0Z"
      transform="translate(0 0)" fill="#104a8e" />
  </g>
</svg>