<svg xmlns="http://www.w3.org/2000/svg" width="24" height="24" viewBox="0 0 45.9 45.9">
  <path id="_216121_calender_icon" data-name="216121_calender_icon"
    d="M43.8,11.119V10.65a7.65,7.65,0,0,0-15.3,0H23.4a7.65,7.65,0,0,0-15.3,0v.469A7.642,7.642,0,0,0,3,18.3V41.25a7.659,7.659,0,0,0,7.65,7.65h30.6a7.659,7.659,0,0,0,7.65-7.65V18.3A7.642,7.642,0,0,0,43.8,11.119ZM33.6,10.65a2.55,2.55,0,0,1,5.1,0v5.1a2.55,2.55,0,0,1-5.1,0Zm-20.4,0a2.55,2.55,0,0,1,5.1,0v5.1a2.55,2.55,0,0,1-5.1,0Zm30.6,30.6a2.553,2.553,0,0,1-2.55,2.55H10.65A2.553,2.553,0,0,1,8.1,41.25V25.95H43.8Z"
    transform="translate(-3 -3)" fill="#104a8e" />
</svg>