<svg xmlns="http://www.w3.org/2000/svg" width="25.577" height="25.095" viewBox="0 0 27.577 33.095">
  <g id="icons" transform="translate(0)">
    <path id="password"
      d="M26.819,13.789H10.273V9.928a5.7,5.7,0,0,1,4.964-5.791A5.586,5.586,0,0,1,21.3,9.653h0a1.3,1.3,0,0,0,1.379,1.379h1.379A1.3,1.3,0,0,0,25.44,9.653h0A9.624,9.624,0,0,0,16.064,0,9.74,9.74,0,0,0,6.136,9.653v4.136H4.758A2.766,2.766,0,0,0,2,16.547V26.2a6.827,6.827,0,0,0,6.894,6.894H22.682A6.827,6.827,0,0,0,29.577,26.2V16.547A2.766,2.766,0,0,0,26.819,13.789ZM17.167,24.406V26.2a1.483,1.483,0,0,1-1.379,1.379A1.483,1.483,0,0,1,14.409,26.2V24.406a2.669,2.669,0,0,1-1.379-2.344,2.758,2.758,0,0,1,5.515,0A2.669,2.669,0,0,1,17.167,24.406Z"
      transform="translate(-2 0.002)" fill="#104a8e" />
  </g>
</svg>