<svg xmlns="http://www.w3.org/2000/svg" width="30.615" height="30.322" viewBox="0 0 36.615 43.322">
  <g id="Personal_Development" data-name="Personal Development" transform="translate(0)">
    <path id="Path_108" data-name="Path 108"
      d="M37.747,35.393v5.052H36.029V35.393a5.155,5.155,0,0,0-1.512-3.652,5.533,5.533,0,0,0-1.641-1.091h-.052a7.3,7.3,0,0,1-.859.232h-.129a6.788,6.788,0,0,1-.962.112,6.873,6.873,0,0,1-.945-.077H29.8a6.126,6.126,0,0,1-.859-.223h-.06a5.155,5.155,0,0,0-3.162,4.7v5.052H24V35.393a6.874,6.874,0,0,1,3.1-5.714A6.117,6.117,0,0,1,30.874,18.75a6.238,6.238,0,0,1,1,.086h0a6.057,6.057,0,0,1,5.018,4.872c0,.2.069.4.086.61s0,.369,0,.558a6.014,6.014,0,0,1-2.337,4.794A6.753,6.753,0,0,1,37.747,35.393Z"
      transform="translate(-12.804 -8.473)" fill="#104a8e" />
    <path id="Path_109" data-name="Path 109"
      d="M42.006,12.985a2.981,2.981,0,0,0,.5-.043h.146l.344-.095.146-.052a3.008,3.008,0,0,0,.361-.18h.077a3.033,3.033,0,0,0,.387-.284l.095-.086a3.015,3.015,0,0,0,.249-.258l.095-.12a3,3,0,0,0,.206-.3l.06-.1h0a7.3,7.3,0,0,1-3.832,14l-.266,1.718A9.124,9.124,0,0,0,42,27.3,9.022,9.022,0,0,0,45.013,9.625,3.012,3.012,0,1,0,39,9.977v.4A3.016,3.016,0,0,0,42.006,12.985Zm0-4.3A1.289,1.289,0,0,1,43.3,9.977v.172a1.289,1.289,0,1,1-2.578,0v-.18A1.289,1.289,0,0,1,42.006,8.689Z"
      transform="translate(-14.915 -6.789)" fill="#104a8e" />
    <path id="Path_110" data-name="Path 110"
      d="M20.017,47.677a2.983,2.983,0,0,0-.5.043h-.146l-.344.095-.146.052a3.008,3.008,0,0,0-.361.18h-.077a3.034,3.034,0,0,0-.387.284l-.095.086a3.017,3.017,0,0,0-.249.258l-.095.12a3,3,0,0,0-.206.3l-.06.1h0a7.3,7.3,0,0,1,2.663-13.979H20.4L20.5,33.5h-.481A9.022,9.022,0,0,0,17.01,51.036a3.012,3.012,0,1,0,6.014-.352v-.4A3.016,3.016,0,0,0,20.017,47.677Zm0,4.3a1.289,1.289,0,0,1-1.289-1.289v-.172a1.289,1.289,0,1,1,2.578,0v.18a1.289,1.289,0,0,1-1.289,1.28Z"
      transform="translate(-10.969 -10.55)" fill="#104a8e" />
    <path id="Path_111" data-name="Path 111"
      d="M50.747,48.578a2.578,2.578,0,0,1-2.578,2.578H39.578a2.578,2.578,0,0,1,0-5.155h8.592A2.578,2.578,0,0,1,50.747,48.578Z"
      transform="translate(-14.634 -12.31)" fill="#104a8e" />
    <path id="Path_112" data-name="Path 112"
      d="M24.747,14.578a2.578,2.578,0,0,1-2.578,2.578H13.578a2.578,2.578,0,0,1,0-5.155h8.592A2.578,2.578,0,0,1,24.747,14.578Z"
      transform="translate(-10.973 -7.523)" fill="#104a8e" />
  </g>
</svg>