<svg id="Layer_2" xmlns="http://www.w3.org/2000/svg" width="16.794" height="20.972" viewBox="0 0 16.794 20.972">
  <g id="Group_3495" data-name="Group 3495" transform="translate(0 0)">
    <g id="Group_3493" data-name="Group 3493" transform="translate(0 0)">
      <path id="Path_127" data-name="Path 127" d="M86.224,27.5H76.61a3.594,3.594,0,0,0-3.59,3.59V40.7a3.594,3.594,0,0,0,3.59,3.59h1.875a.734.734,0,0,0,0-1.468H76.61A2.123,2.123,0,0,1,74.488,40.7V31.09a2.123,2.123,0,0,1,2.121-2.121h9.615a2.123,2.123,0,0,1,2.121,2.121V40.7a2.123,2.123,0,0,1-2.121,2.121H84.35a.734.734,0,0,0,0,1.468h1.875a3.594,3.594,0,0,0,3.59-3.59V31.09A3.594,3.594,0,0,0,86.224,27.5Z" transform="translate(-73.02 -27.5)" fill="#fff"/>
    </g>
    <g id="Group_3494" data-name="Group 3494" transform="translate(4.074 5.097)">
      <path id="Path_128" data-name="Path 128" d="M169.187,143.408a.734.734,0,0,0,1.038-1.039l-3.59-3.59c-.017-.017-.035-.034-.054-.049l-.026-.019-.032-.023-.032-.019-.03-.017-.033-.016-.032-.015-.033-.012-.035-.012-.033-.009-.036-.009-.039-.006-.031,0a.762.762,0,0,0-.145,0l-.031,0-.04.006-.035.009-.034.009-.034.012-.033.012-.031.015-.034.016-.029.017-.032.02-.032.024-.023.017,0,0a.677.677,0,0,0-.054.049l-3.59,3.59a.734.734,0,1,0,1.038,1.039l2.336-2.338v12.634a.734.734,0,1,0,1.468,0V141.071Z" transform="translate(-161.792 -138.565)" fill="#fff"/>
    </g>
  </g>
</svg>
