<svg xmlns="http://www.w3.org/2000/svg" width="32.187" height="32.187" viewBox="0 0 32.187 32.187">
  <g id="_3994382_access_close_exit_logout_sign_out_icon" data-name="3994382_access_close_exit_logout_sign out_icon" transform="translate(0)">
    <path id="Path_115" data-name="Path 115" d="M6.868,34.059H22.129a2.012,2.012,0,0,0,0-4.023H6.868l2.6-2.6A2.011,2.011,0,1,0,6.624,24.59L.589,30.625a2.011,2.011,0,0,0,0,2.845L6.624,39.5A2.011,2.011,0,1,0,9.469,36.66Z" transform="translate(0 -15.954)" fill="#104a8e"/>
    <path id="Path_116" data-name="Path 116" d="M54.105,0H38.012A2.011,2.011,0,0,0,36,2.012V6.035a2.012,2.012,0,0,0,4.023,0V4.023h12.07v24.14H40.023V26.152a2.012,2.012,0,1,0-4.023,0v4.023a2.011,2.011,0,0,0,2.012,2.012H54.105a2.011,2.011,0,0,0,2.012-2.012V2.012A2.011,2.011,0,0,0,54.105,0Z" transform="translate(-23.93 0)" fill="#104a8e"/>
  </g>
</svg>
