<svg xmlns="http://www.w3.org/2000/svg" width="24.859" height="24.859" viewBox="0 0 32.859 32.859">
  <g id="Group_3497" data-name="Group 3497" transform="translate(0)">
    <path id="Fill-38"
      d="M-3.47-237.041A16.429,16.429,0,0,1-19.9-253.47,16.429,16.429,0,0,1-3.47-269.9a16.429,16.429,0,0,1,16.43,16.43,16.429,16.429,0,0,1-16.43,16.43Zm0-31.072A14.7,14.7,0,0,0-18.113-253.47,14.7,14.7,0,0,0-3.47-238.828,14.7,14.7,0,0,0,11.172-253.47,14.7,14.7,0,0,0-3.47-268.113Z"
      transform="translate(19.9 269.9)" fill="#2b507c" />
    <path id="Fill-39" d="M-8.7-247.4H8.761v1.925H-8.7Z" transform="translate(16.399 262.867)" fill="#2b507c" />
    <path id="Fill-40" d="M2.6-258.7H4.525v17.461H2.6Z" transform="translate(12.867 266.399)" fill="#2b507c" />
  </g>
</svg>