<svg id="Layer_2" xmlns="http://www.w3.org/2000/svg" width="20.082" height="20.546" viewBox="0 0 34.082 25.546">
  <path id="Path_120" data-name="Path 120"
    d="M35.918,8.107,4.721,18.922a.965.965,0,0,0,.061,1.893l5.91,1.568a3.689,3.689,0,0,1,2.681,2.325l2.315,6.543a1.423,1.423,0,0,0,2.254.487l3.168-2.866a1.634,1.634,0,0,1,1.95-.162l7.007,4.542a1.721,1.721,0,0,0,2.62-.919l5.3-22.6C38.356,8.594,37.137,7.675,35.918,8.107Zm-3.9,4.975L19.467,22.924a3.106,3.106,0,0,0-1.219,2.109.916.916,0,0,1-1.706.162l-.548-1.622a2.535,2.535,0,0,1,1.28-3.082L31.592,12.6C31.958,12.379,32.323,12.812,32.019,13.082Z"
    transform="translate(-3.974 -7.998)" fill="#104a8e" />
</svg>