<svg id="_623131_back_go_arrow_backward_direction_icon" data-name="623131_back_go_arrow_backward_direction_icon" xmlns="http://www.w3.org/2000/svg" width="26.5" height="33.8" viewBox="0 0 26.5 33.8">
  <path id="Path_65" data-name="Path 65" d="M-244.1,438.9H-229a.9.9,0,0,0,.9-.9v-5.7a.9.9,0,0,0-.9-.9h-7.6a.9.9,0,0,1-.9-.9v-17a.9.9,0,0,1,.9-.9h7.6a.9.9,0,0,0,.9-.9V406a.9.9,0,0,0-.9-.9h-15.1a.9.9,0,0,0-.9.9v32.1A.882.882,0,0,0-244.1,438.9Z" transform="translate(245 -405.1)" fill="#104a8e"/>
  <g id="Group_3357" data-name="Group 3357" transform="translate(245 -405.1)">
    <path id="Path_66" data-name="Path 66" d="M-229.6,429.5h5.2a.449.449,0,0,0,.4-.7l-4.8-6.9,4.8-6.9a.481.481,0,0,0-.4-.7h-5.2c-.2,0-.3.1-.4.3l-5,7.3,5,7.3C-230,429.4-229.8,429.5-229.6,429.5Z" fill="#104a8e"/>
    <path id="Path_67" data-name="Path 67" d="M-219,424.1h-10.4v-4.7H-219a.472.472,0,0,1,.5.5v3.8A.664.664,0,0,1-219,424.1Z" fill="#104a8e"/>
  </g>
</svg>
