<svg xmlns="http://www.w3.org/2000/svg" width="72" height="75" viewBox="0 0 72 75">
  <g id="Icon_-_Chevron_Left_" data-name="Icon - Chevron (Left)" transform="translate(-0.477 -0.18)">
    <rect id="Rectangle_64" data-name="Rectangle 64" width="72" height="75" transform="translate(0.477 0.179)" fill="#ffcf00" opacity="0"/>
    <path id="Union_11" data-name="Union 11" d="M1.006,36.461a2.452,2.452,0,0,1,0-3.961l17-13.86-17-13.86a2.452,2.452,0,0,1,0-3.961,4.012,4.012,0,0,1,4.858,0L25.3,16.66a2.452,2.452,0,0,1,0,3.961L5.864,36.461a3.855,3.855,0,0,1-2.429.821A3.855,3.855,0,0,1,1.006,36.461Z" transform="translate(51.535 55.233) rotate(180)" fill="#ffcf00"/>
  </g>
</svg>
