<svg xmlns="http://www.w3.org/2000/svg" width="42" height="77" viewBox="0 0 42 77">
  <g id="Icon_-_Chevron_Right_" data-name="Icon - Chevron (Right)" transform="translate(0.237 -0.575)">
    <rect id="Rectangle_64" data-name="Rectangle 64" width="42" height="77" transform="translate(-0.237 0.576)" fill="#fff" opacity="0"/>
    <path id="Union_11" data-name="Union 11" d="M1.039,39.233a2.707,2.707,0,0,1,0-4.263L18.591,20.056,1.039,5.143a2.7,2.7,0,0,1,0-4.26,4,4,0,0,1,5.016,0L26.111,17.926a2.7,2.7,0,0,1,0,4.26L6.055,39.233a3.884,3.884,0,0,1-2.508.881A3.884,3.884,0,0,1,1.039,39.233Z" transform="translate(8.981 18.516)" fill="#fff"/>
  </g>
</svg>
