<svg xmlns="http://www.w3.org/2000/svg" width="33" height="33" viewBox="0 0 33 33">
  <g id="icon_action_visibility_24px" data-name="icon/action/visibility_24px" transform="translate(0.001 -0.407)">
    <rect id="Boundary" width="33" height="33" transform="translate(-0.001 0.407)" fill="none"/>
    <path id="_Color" data-name=" ↳Color" d="M15.449,21.068A16.476,16.476,0,0,1,6,18.113a16.625,16.625,0,0,1-6-7.58,16.6,16.6,0,0,1,30.9,0,16.624,16.624,0,0,1-6,7.58A16.476,16.476,0,0,1,15.449,21.068Zm0-17.556a7.022,7.022,0,1,0,7.023,7.022A7.03,7.03,0,0,0,15.449,3.512Zm0,11.236a4.214,4.214,0,1,1,4.214-4.214A4.219,4.219,0,0,1,15.449,14.748Z" transform="translate(1.261 5.889)" fill="rgba(0,0,0,0.44)"/>
  </g>
</svg>
