<svg xmlns="http://www.w3.org/2000/svg" width="230.087" height="214.998" viewBox="0 0 230.087 214.998">
  <path id="_1329083_appreciate_enabled_feelings_heart_like_icon" data-name="1329083_appreciate_enabled_feelings_heart_like_icon" d="M158.533,2a55.127,55.127,0,0,0-42.489,22.243A55.127,55.127,0,0,0,73.554,2C27.46,2,1,31.657,1,83.557c0,28.916,18.407,59.982,54.761,92.456a376.549,376.549,0,0,0,52.613,38.777,15.79,15.79,0,0,0,16.106,0,376.419,376.419,0,0,0,52.23-38.777c35.97-32.475,54.377-63.541,54.377-92.456C231.087,31.657,204.627,2,158.533,2ZM116.043,184.54C86.669,165.115,31.678,121.593,31.678,83.557c0-45.969,22.4-51.9,41.876-51.9,14.189,0,25.31,20.315,28.071,27.359a15.529,15.529,0,0,0,28.761,0c2.224-5.783,13.5-27.359,28.147-27.359,19.481,0,41.876,5.931,41.876,51.9C200.408,121.444,145.418,165.115,116.043,184.54Z" transform="translate(-1 -2)" fill="#ba63c6"/>
</svg>
