<svg xmlns="http://www.w3.org/2000/svg" width="74.13" height="72.666" viewBox="0 0 74.13 72.666">
  <g id="_309058_key_login_private_protect_protection_icon" data-name="309058_key_login_private_protect_protection_icon" transform="translate(-2 -2)">
    <path id="Path_69" data-name="Path 69" d="M27.945,2C13.49,2,2,13.263,2,27.433S13.49,52.866,27.945,52.866,53.891,41.6,53.891,27.433,42.4,2,27.945,2Zm-5.56,29.066a9.085,9.085,0,1,1,0-18.167,9.085,9.085,0,1,1,0,18.167Z" transform="translate(0 0)" fill="#104a8e"/>
    <path id="Path_70" data-name="Path 70" d="M25.826,11,11,25.533,18.413,32.8h7.413v7.267h7.413v7.267l2.595,2.543a3.4,3.4,0,0,0,2.595,1.09h9.637a3.468,3.468,0,0,0,3.706-3.633V37.886a3.268,3.268,0,0,0-1.112-2.543Z" transform="translate(24.358 23.7)" fill="#104a8e"/>
  </g>
</svg>
